<svg height="512" viewBox="0 0 64 64" width="512" xmlns="http://www.w3.org/2000/svg">
    <path
        d="m41 14v-7a4 4 0 0 0 -4-4h-3v4a2 2 0 0 1 -2 2h-18a2 2 0 0 1 -2-2v-4h-3a4 4 0 0 0 -4 4v50a4 4 0 0 0 4 4h28a4 4 0 0 0 4-4v-7a18 18 0 0 1 0-36z"
        fill="#9bc9ff" />
    <path d="m36 37h14l3-10h-17z" fill="#9bc9ff" />
    <circle cx="47" cy="42" fill="#9bc9ff" r="2" />
    <circle cx="39" cy="42" fill="#9bc9ff" r="2" />
    <g fill="#1e81ce">
        <path d="m18 31h2v2h-2z" />
        <path d="m18.75 36.694h2v2h-2z" transform="matrix(.966 -.259 .259 .966 -9.083 6.396)" />
        <path d="m20.947 42h2v2h-2z" transform="matrix(.866 -.5 .5 .866 -18.557 16.731)" />
        <path d="m24.443 46.557h2v2h-2z" transform="matrix(.707 -.707 .707 .707 -26.175 31.92)" />
        <path d="m18.75 25.306h2v2h-2z" transform="matrix(.259 -.966 .966 .259 -10.771 38.575)" />
        <path d="m20.947 20h2v2h-2z" transform="matrix(.5 -.866 .866 .5 -7.212 29.51)" />
        <path d="m24.443 15.444h2v2h-2z" transform="matrix(.707 -.707 .707 .707 -4.176 22.802)" />
        <path d="m34 56h-22a1 1 0 0 0 0 2h22a1 1 0 0 0 0-2z" />
        <path d="m48 52h-2v2h-2v2h2v2h2v-2h2v-2h-2z" />
        <path d="m44 60h6v2h-6z" />
        <path d="m29 50.052h2v2h-2z" transform="matrix(.5 -.866 .866 .5 -29.213 51.512)" />
        <path d="m29 11.948h2v2h-2z" transform="matrix(.866 -.5 .5 .866 -2.454 16.736)" />
        <path d="m51 12a1 1 0 0 1 1 1 1 1 0 0 0 2 0 3 3 0 0 0 -3-3 1 1 0 0 0 0 2z" />
        <path
            d="m51 2a1 1 0 0 0 0 2 9.01 9.01 0 0 1 9 9 1 1 0 0 0 2 0 11.013 11.013 0 0 0 -11-11z" />
        <path d="m51 8a5.006 5.006 0 0 1 5 5 1 1 0 0 0 2 0 7.008 7.008 0 0 0 -7-7 1 1 0 0 0 0 2z" />
        <path
            d="m36 26a1 1 0 0 0 -1 1v10a1 1 0 0 0 1 1h14a1 1 0 0 0 .958-.713l3-10a1 1 0 0 0 -.958-1.287zm13.256 10h-12.256v-8h14.656z" />
        <path
            d="m47 39a3 3 0 0 0 -2.816 2h-2.368a2.982 2.982 0 0 0 -5.632 0h-1.184a1 1 0 0 1 -1-1v-15a3 3 0 0 0 -3-3h-2v2h2a1 1 0 0 1 1 1v15a3 3 0 0 0 3 3h1.184a2.982 2.982 0 0 0 5.632 0h2.368a2.995 2.995 0 1 0 2.816-4zm-8 4a1 1 0 1 1 1-1 1 1 0 0 1 -1 1zm8 0a1 1 0 1 1 1-1 1 1 0 0 1 -1 1z" />
        <path
            d="m42 13.051v-6.051a5.006 5.006 0 0 0 -5-5h-28a5.006 5.006 0 0 0 -5 5v50a5.006 5.006 0 0 0 5 5h28a5.006 5.006 0 0 0 5-5v-6.051a18.974 18.974 0 0 0 0-37.9zm-29-9.051h20v3a1 1 0 0 1 -1 1h-18a1 1 0 0 1 -1-1zm24 56h-28a3 3 0 0 1 -3-3v-50a3 3 0 0 1 3-3h2v3a3 3 0 0 0 3 3h18a3 3 0 0 0 3-3v-3h2a3 3 0 0 1 3 3v6.051a18.974 18.974 0 0 0 0 37.9v6.049a3 3 0 0 1 -3 3zm4-11a17 17 0 1 1 17-17 17.019 17.019 0 0 1 -17 17z" />
    </g>
</svg>